<svg width="32" height="32" viewBox="0 0 32 32" xmlns="http://www.w3.org/2000/svg">
  <defs>
    <linearGradient id="fav-grad1" x1="0%" y1="0%" x2="100%" y2="100%">
      <stop offset="0%" style="stop-color:#8B5CF6;stop-opacity:1" />
      <stop offset="100%" style="stop-color:#EC4899;stop-opacity:1" />
    </linearGradient>
    <linearGradient id="fav-grad2" x1="0%" y1="0%" x2="100%" y2="100%">
      <stop offset="0%" style="stop-color:#3B82F6;stop-opacity:1" />
      <stop offset="100%" style="stop-color:#10B981;stop-opacity:1" />
    </linearGradient>
  </defs>
  
  <!-- Background -->
  <rect width="32" height="32" rx="6" fill="url(#fav-grad1)"/>
  
  <!-- AI representation -->
  <path d="M8 12 Q16 8 24 12 Q26 16 24 20 Q16 24 8 20 Q6 16 8 12" fill="#FFFFFF" opacity="0.3"/>
  
  <!-- UI Elements -->
  <rect x="6" y="14" width="8" height="4" rx="1" fill="#FFFFFF" opacity="0.8"/>
  <rect x="18" y="14" width="8" height="4" rx="1" fill="#FFFFFF" opacity="0.8"/>
  
  <!-- Central element -->
  <circle cx="16" cy="12" r="2" fill="#FFFFFF"/>
  <circle cx="16" cy="12" r="1" fill="url(#fav-grad2)"/>
  
  <!-- Sparkle -->
  <g transform="translate(22, 8) scale(0.3)">
    <path d="M0,-4 L1,0 L4,0 L1,1 L0,4 L-1,1 L-4,0 L-1,0 Z" fill="#FFD700"/>
  </g>
</svg>
